<svg width="500" height="500" viewBox="0 0 500 500" fill="none" xmlns="http://www.w3.org/2000/svg">
<path fill-rule="evenodd" clip-rule="evenodd" d="M348.687 0.489538C349.115 -0.029724 349.954 -0.155919 350.563 0.207673L392.234 25.067C392.844 25.4306 392.992 26.1462 392.565 26.6655L334.566 97.2352C362.763 104.91 381.973 113.188 381.973 113.188C381.973 113.188 335.018 182 255.378 182C175.737 182 119.146 117.866 119.146 117.866C119.146 117.866 139.212 106.956 168.957 97.5983L105.34 33.006C104.862 32.5203 104.937 31.7964 105.507 31.389L144.476 3.52999C145.046 3.12253 145.896 3.18586 146.374 3.67146L226.923 85.4568C233.82 84.7921 240.847 84.4207 247.937 84.4207C258.129 84.4207 268.307 85.0807 278.244 86.2009L348.687 0.489538ZM364.443 185.259C385.696 172.327 417.855 138.574 417.855 138.574C417.855 138.574 500 194.034 500 311.63C500 429.224 357.984 500 357.984 500C357.984 500 290.132 441.619 273.475 367.613C256.818 293.607 298.114 211.432 298.114 211.432C298.114 211.432 343.19 198.191 364.443 185.259V185.259ZM135.557 185.259C114.304 172.327 82.1449 138.574 82.1449 138.574C82.1449 138.574 0 194.034 0 311.63C0 429.224 142.016 500 142.016 500C142.016 500 209.868 441.619 226.525 367.613C243.182 293.607 201.886 211.432 201.886 211.432C201.886 211.432 156.81 198.191 135.557 185.259V185.259Z" fill="#8F9396"/>
</svg>
