<svg width="500" height="500" viewBox="0 0 500 500" fill="none" xmlns="http://www.w3.org/2000/svg">
<g clip-path="url(#clip0_357_553)">
<path fill-rule="evenodd" clip-rule="evenodd" d="M224.006 442.236C233.505 443.69 243.233 444.444 253.139 444.444C358.61 444.444 444.111 358.943 444.111 253.473C444.111 148.001 358.61 62.5 253.139 62.5C246.063 62.5 239.076 62.8849 232.2 63.6349C284.519 103.272 319.111 171.936 319.111 250C319.111 332.07 280.878 403.75 224.006 442.236ZM249.667 500C387.738 500 499.667 388.071 499.667 250C499.667 111.929 387.738 0 249.667 0C111.595 0 -0.333008 111.929 -0.333008 250C-0.333008 388.071 111.595 500 249.667 500Z" fill="#8F9396"/>
</g>
<defs>
<clipPath id="clip0_357_553">
<rect width="500" height="500" fill="white"/>
</clipPath>
</defs>
</svg>
