<svg width="500" height="500" viewBox="0 0 500 500" fill="none" xmlns="http://www.w3.org/2000/svg">
<path fill-rule="evenodd" clip-rule="evenodd" d="M274.123 248.907C277.512 246.841 280.387 242.511 282.705 237.698C313.218 250.169 334.66 279.638 334.66 314.004C334.66 359.658 296.818 396.669 250.139 396.669C230.977 396.669 213.304 390.432 199.127 379.921C194.477 377.719 190.65 375.604 187.52 373.872C182.663 371.188 179.479 369.427 177.484 369.702C171.655 370.506 173.348 375.869 174.886 380.741C175.93 384.051 176.903 387.134 175.396 388.405C173.82 389.737 168.715 384.869 162.749 379.182C154.628 371.438 144.913 362.176 140.332 364.958C136.71 367.158 140.227 373.126 144.531 380.431L144.851 380.973C146.669 384.061 148.776 387.205 150.699 390.074C154.608 395.905 157.757 400.604 156.182 401.399C154.277 402.36 141.01 393.405 129.829 380.973C125.514 376.175 121.334 370.974 117.449 366.141V366.14C108.946 355.56 101.862 346.746 97.8857 347.79C93.102 349.046 96.7208 358.913 102.038 368.408C104.524 372.849 107.449 377.37 109.981 381.285V381.286C113.92 387.374 116.909 391.994 115.825 392.563C114.362 393.327 101.49 380.775 92.7475 364.958C87.5546 355.563 83.1942 345.18 79.6642 336.774C75.8359 327.658 72.9843 320.868 71.1065 320.185C64.5825 317.811 64.5825 331.112 67.1991 350.311C67.5404 352.815 68.0487 355.442 68.6746 358.117C94.0498 440.22 172 500 264.226 500C377.035 500 468.484 410.559 468.484 300.227C468.484 195.215 385.643 109.128 280.391 101.068C280.523 96.1215 283.105 86.3115 283.105 86.3115C283.105 86.3115 301.686 41.3547 302.669 31.7479C302.733 31.1104 302.81 30.4175 302.893 29.6796C304.051 19.2997 306.204 0 289.601 0C280.733 0 276.61 6.59633 271.895 14.1405V14.1406C270.084 17.0368 268.186 20.0728 265.898 22.9287C249.426 43.4996 221.727 69.1883 206.02 82.8741C172.823 111.801 140.253 135.574 121.257 149.439L121.256 149.44C112.616 155.746 106.785 160.003 104.98 161.762C91.3809 175.02 42.619 262.975 42.619 262.975C42.619 262.975 26.8499 291.193 32.4549 296.917C38.0599 302.64 51.5763 301.328 51.5763 301.328C51.5763 301.328 233.159 259.671 249.416 256.386C253.793 255.501 256.883 254.99 259.255 254.599C265.695 253.535 266.852 253.344 274.123 248.907ZM145.737 195.375C135.99 204.64 119.825 226.754 119.825 226.754C119.825 226.754 149.868 228.604 166.414 212.877C182.961 197.148 179.17 170.345 179.17 170.345C179.17 170.345 155.483 186.11 145.737 195.375Z" fill="#8F9396"/>
</svg>
