<svg width="500" height="500" viewBox="0 0 500 500" fill="none" xmlns="http://www.w3.org/2000/svg">
<g clip-path="url(#clip0_357_559)">
<path fill-rule="evenodd" clip-rule="evenodd" d="M100.318 396.463L180.516 373.209L249.783 499.86C249.874 500.024 250.109 500.024 250.199 499.86L319.467 373.209L399.665 396.463C399.845 396.515 400.012 396.348 399.958 396.168L376.7 317.558L499.859 250.199C500.024 250.109 500.024 249.874 499.86 249.784L375.686 181.87L399.958 99.8291C400.012 99.6494 399.845 99.4824 399.665 99.5342L317.586 123.334L250.199 0.12323C250.109 -0.0410739 249.874 -0.0410785 249.784 0.123227L182.397 123.334L100.318 99.5342C100.139 99.4824 99.9717 99.6494 100.025 99.8291L124.298 181.87L0.123231 249.784C-0.0410739 249.874 -0.0410785 250.109 0.123227 250.199L123.282 317.558L100.025 396.168C99.9717 396.348 100.139 396.515 100.318 396.463ZM162.551 250.855L219.366 281.929L250.439 338.743C250.529 338.908 250.766 338.908 250.856 338.743L281.929 281.929L338.743 250.855C338.907 250.766 338.907 250.529 338.743 250.439L281.929 219.366L250.856 162.552C250.766 162.387 250.529 162.387 250.439 162.552L219.366 219.366L162.551 250.439C162.387 250.529 162.387 250.766 162.551 250.855Z" fill="#8F9396"/>
</g>
<defs>
<clipPath id="clip0_357_559">
<rect width="500" height="500" fill="white"/>
</clipPath>
</defs>
</svg>
