<svg viewBox="0 0 500 500" xmlns="http://www.w3.org/2000/svg">
<path fill-rule="evenodd" clip-rule="evenodd" d="M86.6656 41.568C92.7167 17.6772 114.36 0 140.132 0C159.463 0 176.472 9.946 186.319 25H202.445C212.464 14.7184 226.461 8.33333 241.95 8.33333C264.659 8.33333 284.163 22.0588 292.618 41.6667H306.119C314.579 36.3853 324.575 33.3333 335.283 33.3333C357.993 33.3333 377.496 47.0588 385.951 66.6667H422.665C422.978 66.6667 423.272 66.7512 423.525 66.8985C425.202 66.7451 426.9 66.6667 428.616 66.6667C459.076 66.6667 483.768 91.3588 483.768 121.818V287.193L483.769 287.5L483.768 287.807V290.189C483.768 291.197 483.74 292.202 483.686 293.202C480.367 407.927 377.208 500 250.435 500C121.568 500 17.1016 404.86 17.1016 287.5C17.1016 230.851 41.4423 179.378 81.1186 141.284C81.0197 196.512 81.9525 253.607 86.2526 252.628C97.7667 250.003 88.7706 78.9448 86.6656 41.568Z" fill="#8F9396"/>
</svg>
