<svg width="500" height="500" viewBox="0 0 500 500" fill="none" xmlns="http://www.w3.org/2000/svg">
<path fill-rule="evenodd" clip-rule="evenodd" d="M344.002 386.127C350.18 363.538 338.189 317.1 338.189 317.1C338.189 317.1 329.491 354.931 315.901 368.913C304.308 380.84 290.104 389.112 269.732 391.286C286.388 383.196 297.842 366.328 297.842 346.831C297.842 319.462 275.272 297.274 247.43 297.274C219.588 297.274 197.017 319.462 197.017 346.831C197.017 354.306 198.701 361.394 201.716 367.75C184.302 353.877 181.564 331.635 181.564 331.635C181.564 331.635 162.118 412.367 215.698 450.344C269.277 488.32 374.237 455.678 374.237 455.678C374.237 455.678 224.033 561.364 112.731 446.338C16.8525 347.25 87.7063 216.8 87.7063 216.8C87.7063 216.8 84.6463 228.901 84.6463 242.949C84.6463 256.997 92.2628 267.686 92.2628 267.686C92.2628 267.686 114.983 219.796 132.664 200.32C149.399 181.889 170.376 166.939 188.495 154.027C202.442 144.088 214.696 135.355 222.015 127.171C262.324 82.0983 237.608 0 237.608 0C237.608 0 283.048 40.0586 295.733 91.7947C300.569 111.516 297.458 133.954 294.677 154.02C290.161 186.594 286.512 212.915 319.134 211.207C371.851 208.446 326.041 127.171 326.041 127.171C326.041 127.171 445.623 190.022 436.689 299.946C427.755 409.87 305.981 434.86 305.981 434.86C305.981 434.86 337.823 408.716 344.002 386.127Z" fill="#8F9396"/>
</svg>
