<svg width="501" height="500" viewBox="0 0 501 500" fill="none" xmlns="http://www.w3.org/2000/svg">
<g clip-path="url(#clip0_357_565)">
<path fill-rule="evenodd" clip-rule="evenodd" d="M175.117 466.536C248.362 466.536 311.069 425.828 336.957 368.121C337.273 367.417 233.022 395.214 236.347 385.388C237.831 381 301.737 357.654 348.297 330.424C375.058 314.772 387.381 281.641 387.381 281.641C387.381 281.641 342.296 303.53 319.504 309.083C273.574 320.274 233.144 319.069 233.144 317.903C233.144 315.382 300.277 302.626 393.586 245.766C437.476 219.02 449.396 172.952 449.396 172.952C449.396 172.952 401.144 201.694 371.974 211.184C302.798 233.687 239.671 240.468 239.671 237.423C239.671 230.903 295.225 215.627 354.125 187.087C384.75 172.248 411.272 152.861 442.008 131.302C492.299 96.0273 500.593 33.2031 500.593 33.2031C500.593 33.2031 450.991 65.1954 426.785 75.8197C326.903 119.659 238.708 142.655 175.117 147.634C79.125 155.149 0.59375 222.125 0.59375 309.083C0.59375 396.042 78.7304 466.536 175.117 466.536Z" fill="#8F9396"/>
</g>
<defs>
<clipPath id="clip0_357_565">
<rect width="500" height="500" fill="white" transform="translate(0.59375)"/>
</clipPath>
</defs>
</svg>
