<svg width="500" height="500" viewBox="0 0 500 500" fill="none" xmlns="http://www.w3.org/2000/svg">
<path fill-rule="evenodd" clip-rule="evenodd" d="M360.305 498.269C315.204 500.577 263.57 500.577 246.023 498.269C109.15 480.262 0 380.188 0 244.922C0 109.655 111.929 0 250 0C388.071 0 500 109.655 500 244.922C500 307.833 475.788 365.204 435.996 408.581C425.19 420.359 440.017 428.621 455.08 437.016C469.854 445.249 484.855 453.609 476.137 465.539C466.529 478.685 414.445 495.497 360.305 498.269ZM214.844 214.307C214.844 235.441 197.354 252.575 175.781 252.575C154.208 252.575 136.719 235.441 136.719 214.307C136.719 200.132 144.585 187.758 156.273 181.144C156.946 199.572 172.099 214.306 190.692 214.306H214.844V214.307ZM335.914 181.144C335.241 199.572 320.089 214.306 301.495 214.306H277.344V214.307C277.344 235.441 294.833 252.575 316.406 252.575C337.979 252.575 355.469 235.441 355.469 214.307C355.469 200.132 347.603 187.758 335.914 181.144Z" fill="#8F9396"/>
</svg>
