<svg width="501" height="500" viewBox="0 0 501 500" fill="none" xmlns="http://www.w3.org/2000/svg">
<path fill-rule="evenodd" clip-rule="evenodd" d="M95.316 430.321C93.5998 428.707 91.9025 427.062 90.225 425.384C1.66588 336.825 1.66589 193.242 90.225 104.684C178.784 16.1241 460.967 10.1996 460.967 10.1996C460.967 10.1996 499.485 336.825 410.926 425.384C332.274 504.036 210.221 512.835 121.859 451.781L193.058 364.407L306.876 339.834L213.967 330.546L273.012 270.427L340.223 255.703L287.077 239.964L340.223 144.089L264.627 228.882L235.435 187.688L245.711 255.703L193.058 315.061L168.651 239.963V339.834L95.316 430.321Z" fill="#8F9396"/>
</svg>
