<svg width="500" height="500" viewBox="0 0 500 500" fill="none" xmlns="http://www.w3.org/2000/svg">
<g clip-path="url(#clip0_357_571)">
<path fill-rule="evenodd" clip-rule="evenodd" d="M110.121 429.447C109.985 429.447 109.891 429.313 109.936 429.185L237.587 68.4902C237.615 68.4118 237.689 68.3594 237.772 68.3594H374.044C374.127 68.3594 374.202 68.4122 374.23 68.4911L499.987 429.186C500.031 429.314 499.937 429.447 499.802 429.447H113.957H110.121ZM0.196588 430.858C0.0594846 430.858 -0.0354347 430.722 0.012657 430.594L95.0709 176.812C95.0997 176.735 95.173 176.685 95.2549 176.685H177.85C177.986 176.685 178.081 176.82 178.034 176.948L86.1155 430.729C86.0874 430.807 86.0136 430.858 85.9309 430.858H0.196588Z" fill="#8F9396"/>
</g>
<defs>
<clipPath id="clip0_357_571">
<rect width="500" height="500" fill="white"/>
</clipPath>
</defs>
</svg>
