<svg width="500" height="500" viewBox="0 0 500 500" fill="none" xmlns="http://www.w3.org/2000/svg">
<path fill-rule="evenodd" clip-rule="evenodd" d="M375.297 38.1268L376.835 173.234L258.993 229.804L257.54 102.236L375.297 38.1268Z" fill="#8F9396"/>
<path fill-rule="evenodd" clip-rule="evenodd" d="M493.427 251.022L376.771 317.748L260.047 250.917L376.711 189.636L493.427 251.022Z" fill="#8F9396"/>
<path fill-rule="evenodd" clip-rule="evenodd" d="M239.297 251.022L122.641 317.748L5.9165 250.917L122.581 189.636L239.297 251.022Z" fill="#8F9396"/>
<path fill-rule="evenodd" clip-rule="evenodd" d="M121.331 37.5735L242.411 97.54L239.315 228.22L124.993 171.601L121.331 37.5735Z" fill="#8F9396"/>
<path fill-rule="evenodd" clip-rule="evenodd" d="M378.592 462.427L257.512 402.46L260.607 271.779L374.93 328.399L378.592 462.427Z" fill="#8F9396"/>
<path fill-rule="evenodd" clip-rule="evenodd" d="M125.513 463.643L123.974 328.535L241.816 271.966L243.27 399.532L125.513 463.643Z" fill="#8F9396"/>
</svg>
