<svg width="501" height="500" viewBox="0 0 501 500" fill="none" xmlns="http://www.w3.org/2000/svg">
<g clip-path="url(#clip0_357_582)">
<path fill-rule="evenodd" clip-rule="evenodd" d="M418.168 384.228C468.659 343.855 500.374 285.523 500.374 220.654C500.374 98.79 388.445 0 250.374 0C112.303 0 0.374023 98.79 0.374023 220.654C0.374023 283.182 29.8405 339.635 77.1858 379.786C74.3165 389.693 72.7424 400.47 72.7424 411.738C72.7424 460.483 102.197 500 138.532 500C162.142 500 182.847 483.315 194.453 458.256C206.06 483.315 226.765 500 250.374 500C271.896 500 291.003 486.137 303.006 464.704C315.009 486.137 334.116 500 355.637 500C391.972 500 421.427 460.483 421.427 411.738C421.427 402.133 420.282 392.885 418.168 384.228ZM395.111 225.03C395.111 286.899 328.837 337.055 247.085 337.055C165.332 337.055 99.0586 286.899 99.0586 225.03C99.0586 163.161 165.332 113.006 247.085 113.006C328.837 113.006 395.111 163.161 395.111 225.03Z" fill="#8F9396"/>
</g>
<defs>
<clipPath id="clip0_357_582">
<rect width="500" height="500" fill="white" transform="translate(0.374023)"/>
</clipPath>
</defs>
</svg>
