<svg width="500" height="500" viewBox="0 0 500 500" fill="none" xmlns="http://www.w3.org/2000/svg">
<g clip-path="url(#clip0_357_584)">
<path fill-rule="evenodd" clip-rule="evenodd" d="M445.239 415.219C445.239 415.219 382.192 465.784 256.731 444.859C161.546 428.983 110.778 324.056 110.778 267.655C110.778 133.935 209.749 103.504 276.66 103.504C343.57 103.504 387.22 168.738 387.22 219.246C387.22 269.754 351.497 313.932 295.904 313.932C240.313 313.932 223.848 274.903 223.848 239.021C223.848 203.141 252.878 190.499 279.354 190.499C305.829 190.499 314.895 213.102 314.895 232.529C314.895 251.957 299.821 258.914 287.249 258.914C274.677 258.914 273.434 252.571 268.622 245.905C263.81 239.24 274.759 214.01 256.731 214.01C238.704 214.01 235.344 243.015 235.344 243.015C235.344 243.015 241.916 299.004 295.904 298.038C349.894 297.071 375.506 255.333 368.063 214.01C360.619 172.686 320.515 128.774 250.13 137.647C179.745 146.52 151.008 217.638 163.675 293.638C176.342 369.639 267.39 413.674 338.977 397.831C410.564 381.988 481.864 330.162 481.864 198.763C481.864 67.3622 368.063 -11.6213 232.364 1.39564C96.6659 14.4125 12.4306 133.049 17.8224 275.593C23.2142 418.137 158.472 495.77 272.846 499.771C387.22 503.773 457.336 437.565 457.336 437.565C457.336 437.565 473.105 423.504 466.922 412.523C460.74 401.543 445.239 415.219 445.239 415.219Z" fill="#8F9396"/>
</g>
<defs>
<clipPath id="clip0_357_584">
<rect width="500" height="500" fill="white"/>
</clipPath>
</defs>
</svg>
