<svg width="500" height="500" viewBox="0 0 500 500" fill="none" xmlns="http://www.w3.org/2000/svg">
<g clip-path="url(#clip0_357_586)">
<path fill-rule="evenodd" clip-rule="evenodd" d="M385.877 239.02C385.849 238.981 385.837 238.933 385.845 238.885L417.743 52.8826C417.758 52.797 417.833 52.7344 417.919 52.7344H428.015C428.093 52.7344 428.161 52.7849 428.185 52.8591L500.05 280.401C500.072 280.472 500.048 280.55 499.989 280.596L447.002 321.966C446.923 322.027 446.809 322.012 446.749 321.931L385.877 239.02ZM-0.976562 362.326C-0.976562 362.403 -0.926957 362.472 -0.853622 362.496L108.374 398.21C108.427 398.227 108.485 398.219 108.531 398.187L352.681 229.633C352.722 229.604 352.749 229.561 352.756 229.512L378.938 53.8363C378.954 53.7285 378.87 53.6316 378.762 53.6316H162.506C162.452 53.6316 162.402 53.6553 162.368 53.6962L-0.935522 250.697C-0.962051 250.729 -0.976562 250.769 -0.976562 250.811V362.326ZM153.89 407.309L273.219 446.398C273.272 446.416 273.332 446.407 273.378 446.374L415.447 344.467C415.526 344.411 415.546 344.303 415.492 344.223L362.234 264.97C362.179 264.887 362.067 264.865 361.985 264.922L153.89 407.309Z" fill="#8F9396"/>
</g>
<defs>
<clipPath id="clip0_357_586">
<rect width="500" height="500" fill="white"/>
</clipPath>
</defs>
</svg>
