<svg width="501" height="500" viewBox="0 0 501 500" fill="none" xmlns="http://www.w3.org/2000/svg">
<g clip-path="url(#clip0_357_588)">
<path fill-rule="evenodd" clip-rule="evenodd" d="M0.864366 248.562C0.797847 248.448 0.797814 248.308 0.864277 248.193L126.591 33.3831C126.656 33.2717 126.776 33.2031 126.905 33.2031H376.102C376.231 33.2031 376.352 33.2723 376.417 33.3847L500.765 248.195C500.83 248.308 500.83 248.447 500.765 248.56L376.417 463.129C376.352 463.241 376.231 463.311 376.102 463.311H126.905C126.776 463.311 126.656 463.242 126.591 463.131L0.864366 248.562ZM366.651 248.257C366.651 312.21 314.807 364.055 250.854 364.055C186.9 364.055 135.056 312.21 135.056 248.257C135.056 184.303 186.9 132.459 250.854 132.459C314.807 132.459 366.651 184.303 366.651 248.257Z" fill="#8F9396"/>
</g>
<defs>
<clipPath id="clip0_357_588">
<rect width="500" height="500" fill="white" transform="translate(0.814453)"/>
</clipPath>
</defs>
</svg>
