<svg width="500" height="500" viewBox="0 0 500 500" fill="none" xmlns="http://www.w3.org/2000/svg">
<path fill-rule="evenodd" clip-rule="evenodd" d="M412.277 338.394C412.277 427.634 339.661 499.978 250.084 499.978C160.507 499.978 87.8906 427.634 87.8906 338.394C87.8906 251.601 241.311 13.2304 249.725 0.222471C249.917 -0.0741587 250.252 -0.0741561 250.443 0.222474C258.857 13.2304 412.277 251.601 412.277 338.394ZM223.047 448.175C140.742 430.166 154.826 338.994 154.826 338.994C154.826 338.994 177.301 394.031 231.841 411.859C286.38 429.687 352.29 403.54 352.29 403.54C352.29 403.54 305.352 466.183 223.047 448.175Z" fill="#8F9396"/>
</svg>
