<svg id="svg" xmlns="http://www.w3.org/2000/svg" xmlns:xlink="http://www.w3.org/1999/xlink" width="400" height="400" viewBox="0, 0, 400,400">
<g id="svgg">
<path id="path0" d="M178.580 11.508 C 128.049 16.395,72.337 49.808,44.372 92.000 C 27.915 116.829,12.571 156.509,12.571 174.238 L 12.571 177.143 58.571 177.122 L 104.571 177.102 107.242 168.661 C 121.758 122.785,173.977 92.478,219.509 103.503 C 256.143 112.373,285.594 139.313,293.843 171.500 L 295.289 177.143 341.359 177.143 L 387.429 177.143 387.427 172.286 C 387.424 160.826,379.401 134.834,370.054 116.000 C 334.668 44.699,259.507 3.682,178.580 11.508 M180.923 140.473 C 149.368 149.501,130.516 185.576,140.558 217.714 C 161.797 285.686,261.714 270.928,261.714 199.819 C 261.714 158.932,220.983 129.012,180.923 140.473 M12.571 226.237 C 12.571 231.675,20.045 259.108,24.571 270.286 C 85.545 420.861,297.787 429.307,369.190 284.000 C 378.553 264.947,387.317 237.038,387.404 226.000 L 387.429 222.857 341.413 222.857 L 295.398 222.857 293.999 228.857 C 281.123 284.080,214.580 313.754,158.504 289.279 C 132.838 278.077,105.352 245.173,105.167 225.429 L 105.143 222.857 58.857 222.857 L 12.571 222.857 12.571 226.237 " 
stroke="none" fill="#80808080" >
</path>
</g>
</svg>